<svg width="50" height="50" viewBox="0 0 50 50" fill="none" xmlns="http://www.w3.org/2000/svg">
<path d="M30.7417 18.825C30.6414 18.7246 30.5224 18.6449 30.3913 18.5905C30.2603 18.5362 30.1198 18.5082 29.9779 18.5082C29.836 18.5082 29.6955 18.5362 29.5645 18.5905C29.4334 18.6449 29.3144 18.7246 29.2142 18.825L23.1042 24.935L24.6317 26.4625L30.7417 20.3417C31.1533 19.93 31.1533 19.2367 30.7417 18.825ZM35.335 18.8142L24.6317 29.5175L20.8617 25.7583C20.6591 25.5558 20.3844 25.442 20.0979 25.442C19.8115 25.442 19.5367 25.5558 19.3342 25.7583C19.1316 25.9609 19.0178 26.2356 19.0178 26.5221C19.0178 26.8085 19.1316 27.0833 19.3342 27.2858L23.8625 31.8142C24.285 32.2367 24.9675 32.2367 25.39 31.8142L36.8625 20.3525C36.9629 20.2523 37.0426 20.1332 37.097 20.0022C37.1513 19.8711 37.1793 19.7306 37.1793 19.5887C37.1793 19.4469 37.1513 19.3064 37.097 19.1753C37.0426 19.0443 36.9629 18.9252 36.8625 18.825H36.8517C36.7539 18.7227 36.6366 18.6411 36.5068 18.5851C36.3769 18.529 36.2371 18.4996 36.0956 18.4986C35.9542 18.4976 35.8139 18.525 35.6833 18.5792C35.5526 18.6334 35.4342 18.7133 35.335 18.8142ZM13.2133 27.2967L17.7417 31.825C18.1642 32.2475 18.8467 32.2475 19.2692 31.825L20.0275 31.0667L14.7408 25.7583C14.6406 25.6579 14.5216 25.5782 14.3905 25.5239C14.2595 25.4695 14.119 25.4415 13.9771 25.4415C13.8352 25.4415 13.6947 25.4695 13.5637 25.5239C13.4326 25.5782 13.3136 25.6579 13.2133 25.7583C12.7908 26.1808 12.7908 26.8742 13.2133 27.2967Z" fill="#16A324"/>
<circle cx="25" cy="25" r="25" fill="#16A324" fill-opacity="0.1"/>
</svg>
