<svg width="50" height="50" viewBox="0 0 50 50" fill="none" xmlns="http://www.w3.org/2000/svg">
<path d="M16.485 14.9142C16.3846 15.0144 16.3049 15.1334 16.2505 15.2645C16.1962 15.3955 16.1682 15.536 16.1682 15.6779C16.1682 15.8198 16.1962 15.9603 16.2505 16.0913C16.3049 16.2224 16.3846 16.3414 16.485 16.4417L26.9608 26.9175L25.4333 28.445L21.5983 24.6208C21.498 24.5205 21.379 24.441 21.2479 24.3867C21.1169 24.3324 20.9764 24.3045 20.8346 24.3045C20.6927 24.3045 20.5523 24.3324 20.4212 24.3867C20.2902 24.441 20.1711 24.5205 20.0708 24.6208C19.9705 24.7211 19.891 24.8402 19.8367 24.9712C19.7824 25.1023 19.7545 25.2427 19.7545 25.3846C19.7545 25.5264 19.7824 25.6669 19.8367 25.7979C19.891 25.929 19.9705 26.048 20.0708 26.1483L24.6642 30.7417C25.0867 31.1642 25.7692 31.1642 26.1917 30.7417L28.4883 28.445L34.8692 34.8258C34.9695 34.9261 35.0885 35.0057 35.2196 35.06C35.3506 35.1143 35.4911 35.1422 35.6329 35.1422C35.7747 35.1422 35.9152 35.1143 36.0462 35.06C36.1773 35.0057 36.2964 34.9261 36.3967 34.8258C36.497 34.7255 36.5765 34.6065 36.6308 34.4754C36.6851 34.3444 36.713 34.2039 36.713 34.0621C36.713 33.9202 36.6851 33.7798 36.6308 33.6487C36.5765 33.5177 36.497 33.3986 36.3967 33.2983L18.0125 14.9142C17.9123 14.8137 17.7932 14.7341 17.6622 14.6797C17.5311 14.6253 17.3906 14.5974 17.2487 14.5974C17.1069 14.5974 16.9664 14.6253 16.8353 14.6797C16.7043 14.7341 16.5852 14.8137 16.485 14.9142ZM31.5542 25.39L36.1475 20.7967C36.2485 20.6953 36.3283 20.575 36.3825 20.4425C36.4366 20.3101 36.464 20.1683 36.463 20.0252C36.462 19.8822 36.4326 19.7407 36.3766 19.6091C36.3206 19.4775 36.239 19.3583 36.1367 19.2583C35.7142 18.8467 35.0317 18.8467 34.6092 19.2692L30.0158 23.8625L31.5542 25.39ZM30.0267 19.2583C29.9264 19.1579 29.8074 19.0782 29.6763 19.0239C29.5453 18.9695 29.4048 18.9415 29.2629 18.9415C29.121 18.9415 28.9805 18.9695 28.8495 19.0239C28.7184 19.0782 28.5994 19.1579 28.4992 19.2583L26.9608 20.7967L28.4883 22.3242L30.0267 20.7858C30.1271 20.6856 30.2068 20.5666 30.2611 20.4355C30.3155 20.3045 30.3435 20.164 30.3435 20.0221C30.3435 19.8802 30.3155 19.7397 30.2611 19.6087C30.2068 19.4776 30.1271 19.3586 30.0267 19.2583ZM13.9392 26.1483L19.3017 31.5108L20.8292 29.9833L15.4667 24.6208C15.2641 24.4183 14.9894 24.3045 14.7029 24.3045C14.4164 24.3045 14.1417 24.4183 13.9392 24.6208C13.7366 24.8234 13.6228 25.0981 13.6228 25.3846C13.6228 25.671 13.7366 25.9458 13.9392 26.1483Z" fill="#264969"/>
<circle cx="25" cy="25" r="25" fill="#264969" fill-opacity="0.1"/>
</svg>
