<svg width="61" height="60" viewBox="0 0 61 60" fill="none" xmlns="http://www.w3.org/2000/svg">
<circle cx="30.6649" cy="30" r="30" fill="#264969"/>
<path d="M28.5 37.5C30.7187 37.4995 32.8735 36.7568 34.6213 35.39L40.1162 40.885L41.8838 39.1175L36.3888 33.6225C37.7563 31.8746 38.4995 29.7193 38.5 27.5C38.5 21.9862 34.0138 17.5 28.5 17.5C22.9863 17.5 18.5 21.9862 18.5 27.5C18.5 33.0137 22.9863 37.5 28.5 37.5ZM28.5 20C32.6362 20 36 23.3637 36 27.5C36 31.6362 32.6362 35 28.5 35C24.3637 35 21 31.6362 21 27.5C21 23.3637 24.3637 20 28.5 20Z" fill="white"/>
</svg>
